HIERARCHY
ROOT Hips
{
	OFFSET 0.00000 0.00000 0.00000
	CHANNELS 6 Xposition Yposition Zposition Zrotation Yrotation Xrotation 
	JOINT LHipJoint
	{
		OFFSET 0 0 0
		CHANNELS 3 Zrotation Yrotation Xrotation
		JOINT LeftHip
		{
			OFFSET 1.37324 -1.83837 0.85674
			CHANNELS 3 Zrotation Yrotation Xrotation
			JOINT LeftKnee
			{
				OFFSET 2.53826 -6.97383 0.00000
				CHANNELS 3 Zrotation Yrotation Xrotation
				JOINT LeftAnkle
				{
					OFFSET 2.65296 -7.28895 0.00000
					CHANNELS 3 Zrotation Yrotation Xrotation
					JOINT LeftToe
					{
						OFFSET 0.22100 -0.60718 2.29776
						CHANNELS 3 Zrotation Yrotation Xrotation
						End Site
						{
							OFFSET 0.00000 -0.00000 1.19228
						}
					}
				}
			}
		}
	}
	JOINT RHipJoint
	{
		OFFSET 0 0 0
		CHANNELS 3 Zrotation Yrotation Xrotation
		JOINT RightHip
		{
			OFFSET -1.30156 -1.83836 0.85673
			CHANNELS 3 Zrotation Yrotation Xrotation
			JOINT RightKnee
			{
				OFFSET -2.63627 -7.24310 0.00000
				CHANNELS 3 Zrotation Yrotation Xrotation
				JOINT RightAnkle
				{
					OFFSET -2.62024 -7.19904 0.00000
					CHANNELS 3 Zrotation Yrotation Xrotation
					JOINT RightToe
					{
						OFFSET -0.20765 -0.57052 2.42402
						CHANNELS 3 Zrotation Yrotation Xrotation
						End Site
						{
							OFFSET -0.00000 -0.00000 1.24980
						}
					}
				}
			}
		}
	}
	JOINT lowerback
	{
		OFFSET 0 0 0
		CHANNELS 3 Zrotation Yrotation Xrotation
		JOINT Chest
		{
			OFFSET 0.05739 2.14162 -0.22815
			CHANNELS 3 Zrotation Yrotation Xrotation
			JOINT Chest2
			{
				OFFSET 0.02798 2.14167 0.08145
				CHANNELS 3 Zrotation Yrotation Xrotation
				JOINT lowerneck
				{
					OFFSET 0 0 0
					CHANNELS 3 Zrotation Yrotation Xrotation
					JOINT Neck
					{
						OFFSET -0.07019 1.58903 0.32980
						CHANNELS 3 Zrotation Yrotation Xrotation
						JOINT Head
						{
							OFFSET -0.03205 1.65283 -0.21190
							CHANNELS 3 Zrotation Yrotation Xrotation
							End Site
							{
								OFFSET -0.00726 1.66788 -0.10849
							}
						}
					}
				}
				JOINT LeftCollar
				{
					OFFSET 0 0 0
					CHANNELS 3 Zrotation Yrotation Xrotation
					JOINT LeftShoulder
					{
						OFFSET 3.92858 0.97533 -0.07938
CHANNELS 3 Zrotation Xrotation Yrotation
						JOINT LeftElbow
						{
OFFSET 0 -5.583450 -0.000000
CHANNELS 3 Zrotation Xrotation Yrotation
							JOINT LeftWrist
							{
OFFSET 0 -3.710870 0.000000
CHANNELS 3 Zrotation Xrotation Yrotation
								JOINT lhand
								{
									OFFSET 0 0 0
CHANNELS 3 Zrotation Xrotation Yrotation
									JOINT LFingers
									{
OFFSET 0 -0.562320 -0.000000
CHANNELS 3 Zrotation Xrotation Yrotation
										End Site
										{
OFFSET 0 -0.453360 -0.000000
										}
									}
								}
								JOINT LThumb
								{
OFFSET 0 0.000000 0.000000
CHANNELS 3 Zrotation Xrotation Yrotation
									End Site
									{
OFFSET 0 -0.460280 0.460280
									}
								}
							}
						}
					}
				}
				JOINT RightCollar
				{
					OFFSET 0 0 0
					CHANNELS 3 Zrotation Yrotation Xrotation
					JOINT RightShoulder
					{
						OFFSET -3.89897 1.08887 -0.22589
CHANNELS 3 Zrotation Xrotation Yrotation
						JOINT RightElbow
						{
OFFSET 0 -5.203570 -0.000000
CHANNELS 3 Zrotation Xrotation Yrotation
							JOINT RightWrist
							{
OFFSET 0 -3.649370 0.000000
CHANNELS 3 Zrotation Xrotation Yrotation
								JOINT rhand
								{
									OFFSET 0 0 0
CHANNELS 3 Zrotation Xrotation Yrotation
									JOINT RFingers
									{
OFFSET 0 -0.618000 -0.000000
CHANNELS 3 Zrotation Xrotation Yrotation
										End Site
										{
OFFSET 0 -0.498240 -0.000000
										}
									}
								}
								JOINT RThumb
								{
OFFSET 0 0.000000 0.000000
CHANNELS 3 Zrotation Xrotation Yrotation
									End Site
									{
OFFSET 0 -0.505850 0.505850
									}
								}
							}
						}
					}
				}
			}
		}
	}
}
MOTION
Frames: 5
Frame Time: 0.008333333333333333
-6.651147 17.003640 -2.810098 3.679051 14.752897 8.854411 0.000000 0.000000 0.000000 -27.669594 -9.896953 -24.730983 6.809412 15.169074 48.149237 1.310126 -10.709903 -20.691664 0.016775 0.834141 2.292620 0.000000 0.000000 0.000000 10.775981 -2.306326 -31.808505 -22.194859 -19.884114 96.429386 -0.051174 -2.969781 -6.363378 -0.355967 3.830159 -10.599620 -3.389529 -0.358313 14.288415 0.076954 -1.026873 -0.010444 2.215403 -0.358241 -7.985522 -0.469239 -1.405899 -25.586305 -3.522506 -1.091202 11.317299 -1.258924 -0.912640 7.582197 0.000000 0.000000 0.000000 8.694051 7.624666 -38.491745 124.875824 -54.860934 89.681730 16.990551 -19.397450 7.184773 0.000000 0.000000 0.000000 -7.125000 0.000000 0.000000 -7.162969 22.488626 -3.908198 0.000000 0.000000 0.000000 -3.953221 19.705552 38.020968 -73.630629 -58.962414 -45.873137 -32.143909 -1.325645 -8.333027 0.000000 0.000000 0.000000 7.125000 0.000000 0.000000 -3.780730 20.175912 -2.249291
-6.625042 16.995520 -2.659894 3.671153 14.632290 8.918234 0.000000 0.000000 0.000000 -27.716983 -9.707258 -24.126150 6.761635 15.127421 47.966110 1.372979 -10.695908 -21.149591 0.014724 0.778022 2.138259 0.000000 0.000000 0.000000 10.699743 -1.947777 -32.762714 -22.220576 -19.881343 96.504959 -0.063922 -3.038342 -6.815735 -0.334102 3.708278 -10.258059 -3.397788 -0.351939 14.270845 0.080861 -1.019418 -0.032531 2.222608 -0.353724 -7.999767 -0.391116 -1.323896 -25.674515 -3.617118 -0.989607 11.313696 -1.290572 -0.871320 7.596192 0.000000 0.000000 0.000000 8.550554 6.897397 -38.190035 125.417472 -54.678001 90.123390 17.008454 -19.411750 7.136719 0.000000 0.000000 0.000000 -7.125000 0.000000 0.000000 -7.151108 22.537678 -3.893593 0.000000 0.000000 0.000000 -3.921462 20.253657 37.673504 -73.892488 -58.995642 -46.097611 -32.300126 -1.346734 -8.255680 0.000000 0.000000 0.000000 7.125000 0.000000 0.000000 -3.899591 20.250737 -2.313474
-6.598936 16.987400 -2.509691 3.663255 14.511684 8.982057 0.000000 0.000000 0.000000 -27.764372 -9.517564 -23.521317 6.713858 15.085769 47.782984 1.435832 -10.681913 -21.607518 0.012673 0.721904 1.983898 0.000000 0.000000 0.000000 10.623505 -1.589228 -33.716923 -22.246294 -19.878572 96.580532 -0.076670 -3.106904 -7.268092 -0.312236 3.586397 -9.916498 -3.406046 -0.345565 14.253275 0.084769 -1.011963 -0.054618 2.229813 -0.349207 -8.014011 -0.312994 -1.241894 -25.762725 -3.711729 -0.888012 11.310093 -1.322220 -0.830000 7.610187 0.000000 0.000000 0.000000 8.407057 6.170129 -37.888325 125.959119 -54.495069 90.565049 17.026356 -19.426050 7.088665 0.000000 0.000000 0.000000 -7.125000 0.000000 0.000000 -7.139247 22.586729 -3.878988 0.000000 0.000000 0.000000 -3.889703 20.801762 37.326041 -74.154347 -59.028869 -46.322085 -32.456343 -1.367824 -8.178334 0.000000 0.000000 0.000000 7.125000 0.000000 0.000000 -4.018451 20.325562 -2.377657
-6.572831 16.979280 -2.359487 3.655356 14.391078 9.045879 0.000000 0.000000 0.000000 -27.811761 -9.327869 -22.916484 6.666081 15.044117 47.599857 1.498685 -10.667918 -22.065445 0.010622 0.665785 1.829538 0.000000 0.000000 0.000000 10.547267 -1.230679 -34.671132 -22.272011 -19.875801 96.656105 -0.089418 -3.175466 -7.720449 -0.290371 3.464516 -9.574937 -3.414305 -0.339191 14.235705 0.088676 -1.004508 -0.076705 2.237019 -0.344690 -8.028255 -0.234871 -1.159892 -25.850935 -3.806341 -0.786416 11.306491 -1.353868 -0.788680 7.624182 0.000000 0.000000 0.000000 8.263560 5.442860 -37.586616 126.500767 -54.312136 91.006709 17.044259 -19.440349 7.040611 0.000000 0.000000 0.000000 -7.125000 0.000000 0.000000 -7.127386 22.635781 -3.864384 0.000000 0.000000 0.000000 -3.857944 21.349867 36.978577 -74.416206 -59.062097 -46.546559 -32.612561 -1.388913 -8.100987 0.000000 0.000000 0.000000 7.125000 0.000000 0.000000 -4.137312 20.400386 -2.441840
-6.545984 16.973631 -2.202736 3.748637 14.356183 9.135324 0.000000 0.000000 0.000000 -27.966086 -9.166342 -22.218552 6.596536 14.981759 47.330055 1.547207 -10.634206 -22.402428 0.008152 0.553135 1.519913 0.000000 0.000000 0.000000 10.355915 -0.990209 -35.551563 -22.243792 -19.878811 96.573128 -0.104908 -3.177044 -8.107849 -0.302578 3.533775 -9.768894 -3.518083 -0.361874 14.154883 0.082058 -1.049286 -0.092245 2.296481 -0.362978 -7.994789 -0.161245 -1.077099 -25.926692 -3.889661 -0.684796 11.302147 -1.380748 -0.746372 7.636571 0.000000 0.000000 0.000000 8.068547 4.774817 -37.282657 127.111473 -54.089300 91.500503 17.099865 -19.533121 7.037500 0.000000 0.000000 0.000000 -7.125000 0.000000 0.000000 -7.086815 22.636653 -3.841897 0.000000 0.000000 0.000000 -3.855785 21.915218 36.668916 -74.786804 -59.105677 -46.864676 -32.617023 -1.732613 -8.164327 0.000000 0.000000 0.000000 7.125000 0.000000 0.000000 -4.134313 20.325531 -2.447021
